# xmcd
#
# Track frame offsets:
#	150
#	18060
#	39245
#	54005
#	66860
#	86955
#	106590
#	118522
#	146692
#	169615
#	183437
#
# Disc length: 2722 seconds
# Revision: 0
# Processed by: cddbd v1.5.2PL0 Copyright (c) Steve Scherf et al.
# Submitted via: dBpowerAMP V12.0
#
DISCID=810aa00b
DTITLE=Rattlesnake Annie - Southern Discomfort
DYEAR=2002
DGENRE=Country
TTITLE0=They Say
TTITLE1=House Of The Rising Sun
TTITLE2=Nihon Blues
TTITLE3=Blues Get Off My Shoulders
TTITLE4=Diamond Back Blues
TTITLE5=Motherless Child
TTITLE6=Blues Horses
TTITLE7=Free The Children
TTITLE8=Stop
TTITLE9=Southers Discomfort
TTITLE10=Trouble In Mind
EXTD=
EXTT0=
EXTT1=
EXTT2=
EXTT3=
EXTT4=
EXTT5=
EXTT6=
EXTT7=
EXTT8=
EXTT9=
EXTT10=
PLAYORDER=
